<svg width="154" height="31" viewBox="0 0 154 31" fill="none" xmlns="http://www.w3.org/2000/svg">
<path d="M6 11H4V25C4 26.1 4.9 27 6 27H20V25H6V11ZM22 7H10C8.9 7 8 7.9 8 9V21C8 22.1 8.9 23 10 23H22C23.1 23 24 22.1 24 21V9C24 7.9 23.1 7 22 7ZM22 21H10V9H22V21ZM14 10.5V19.5L20 15L14 10.5Z" fill="#8492A6"/>
<path d="M2 15H0V29C0 30.1 0.9 31 2 31H16V29H2V15Z" fill="#8492A6"/>
<rect x="124" y="3" width="28" height="13" rx="1" fill="#0057FF"/>
<path d="M127.799 13H130.587C132.277 13 133.04 12.1584 133.04 11.0433C133.04 9.91761 132.252 9.28196 131.531 9.2429V9.17188C132.199 9.00142 132.756 8.54688 132.756 7.63778C132.756 6.56179 132.011 5.72727 130.462 5.72727H127.799V13ZM128.896 12.0589V9.7294H130.519C131.4 9.7294 131.95 10.2976 131.95 10.9901C131.95 11.6009 131.535 12.0589 130.48 12.0589H128.896ZM128.896 8.87358V6.66122H130.395C131.265 6.66122 131.68 7.11932 131.68 7.72301C131.68 8.42614 131.105 8.87358 130.366 8.87358H128.896ZM136.608 13.1101C137.797 13.1101 138.639 12.5241 138.88 11.6364L137.875 11.4553C137.684 11.9702 137.222 12.233 136.618 12.233C135.709 12.233 135.098 11.6435 135.07 10.5923H138.948V10.2159C138.948 8.24503 137.769 7.47443 136.533 7.47443C135.013 7.47443 134.012 8.6321 134.012 10.3082C134.012 12.0021 134.999 13.1101 136.608 13.1101ZM135.074 9.79688C135.116 9.02273 135.677 8.35156 136.54 8.35156C137.364 8.35156 137.904 8.96236 137.907 9.79688H135.074ZM142.672 7.54545H141.553V6.23864H140.492V7.54545H139.693V8.39773H140.492V11.6186C140.488 12.6094 141.244 13.0888 142.083 13.071C142.42 13.0675 142.647 13.0036 142.771 12.9574L142.58 12.0803C142.509 12.0945 142.377 12.1264 142.207 12.1264C141.862 12.1264 141.553 12.0128 141.553 11.3984V8.39773H142.672V7.54545ZM145.434 13.1207C146.336 13.1207 146.844 12.6626 147.046 12.2543H147.089V13H148.126V9.37784C148.126 7.79048 146.876 7.47443 146.009 7.47443C145.022 7.47443 144.113 7.87216 143.758 8.86648L144.756 9.09375C144.912 8.70668 145.31 8.33381 146.023 8.33381C146.709 8.33381 147.06 8.69247 147.06 9.31037V9.33523C147.06 9.7223 146.663 9.7152 145.683 9.82884C144.649 9.94957 143.591 10.2195 143.591 11.4588C143.591 12.5312 144.397 13.1207 145.434 13.1207ZM145.665 12.2685C145.065 12.2685 144.631 11.9986 144.631 11.473C144.631 10.9048 145.136 10.7024 145.75 10.6207C146.094 10.5746 146.911 10.4822 147.064 10.3295V11.0327C147.064 11.679 146.549 12.2685 145.665 12.2685Z" fill="white"/>
<path d="M37.8608 12H39.4418V9.05114H41.1122C43.1278 9.05114 44.2102 7.84091 44.2102 6.16193C44.2102 4.49574 43.1406 3.27273 41.1335 3.27273H37.8608V12ZM39.4418 7.75142V4.59375H40.8906C42.0753 4.59375 42.5994 5.23295 42.5994 6.16193C42.5994 7.09091 42.0753 7.75142 40.8991 7.75142H39.4418ZM48.3192 12.1278C49.8448 12.1278 50.8931 11.3821 51.1658 10.2443L49.7255 10.0824C49.5167 10.6364 49.0053 10.9261 48.3406 10.9261C47.3434 10.9261 46.6829 10.2699 46.6701 9.14915H51.2298V8.67614C51.2298 6.37926 49.8491 5.36932 48.2383 5.36932C46.3633 5.36932 45.1403 6.74574 45.1403 8.76562C45.1403 10.8196 46.3462 12.1278 48.3192 12.1278ZM46.6744 8.10938C46.7212 7.27415 47.3391 6.57102 48.2596 6.57102C49.146 6.57102 49.7425 7.21875 49.7511 8.10938H46.6744ZM52.5348 12H54.0774V8.15199C54.0774 7.32102 54.7038 6.73295 55.5518 6.73295C55.8118 6.73295 56.1357 6.77983 56.2678 6.82244V5.40341C56.1271 5.37784 55.8842 5.3608 55.7138 5.3608C54.9638 5.3608 54.3374 5.78693 54.0987 6.54545H54.0305V5.45455H52.5348V12ZM62.4659 7.18466C62.2528 6.0767 61.3665 5.36932 59.8324 5.36932C58.2557 5.36932 57.1818 6.14489 57.1861 7.35511C57.1818 8.30966 57.7699 8.94034 59.027 9.20028L60.1435 9.43466C60.7443 9.56676 61.0256 9.80966 61.0256 10.1804C61.0256 10.6278 60.5398 10.9645 59.8068 10.9645C59.0994 10.9645 58.6392 10.6577 58.5071 10.0696L57.0028 10.2145C57.1946 11.4162 58.2045 12.1278 59.8111 12.1278C61.4474 12.1278 62.6023 11.2798 62.6065 10.0398C62.6023 9.10653 62.0014 8.53551 60.7656 8.26705L59.6491 8.02841C58.9844 7.87926 58.7202 7.64915 58.7244 7.26989C58.7202 6.8267 59.2102 6.51989 59.8537 6.51989C60.5653 6.51989 60.9403 6.90767 61.0597 7.33807L62.4659 7.18466ZM66.7337 12.1278C68.6513 12.1278 69.87 10.777 69.87 8.75284C69.87 6.72443 68.6513 5.36932 66.7337 5.36932C64.8161 5.36932 63.5973 6.72443 63.5973 8.75284C63.5973 10.777 64.8161 12.1278 66.7337 12.1278ZM66.7422 10.892C65.6811 10.892 65.1612 9.94602 65.1612 8.74858C65.1612 7.55114 65.6811 6.59233 66.7422 6.59233C67.7862 6.59233 68.3061 7.55114 68.3061 8.74858C68.3061 9.94602 67.7862 10.892 66.7422 10.892ZM72.7219 8.16477C72.7219 7.21875 73.293 6.6733 74.1069 6.6733C74.9038 6.6733 75.381 7.19744 75.381 8.07102V12H76.9237V7.83239C76.9279 6.2642 76.033 5.36932 74.6822 5.36932C73.7021 5.36932 73.0288 5.83807 72.7305 6.56676H72.6538V5.45455H71.1793V12H72.7219V8.16477ZM80.3754 12.1321C81.4023 12.1321 82.016 11.6506 82.2972 11.1009H82.3484V12H83.8313V7.61932C83.8313 5.8892 82.4208 5.36932 81.1722 5.36932C79.7958 5.36932 78.739 5.98295 78.3981 7.17614L79.8384 7.38068C79.9918 6.93324 80.4265 6.54972 81.1808 6.54972C81.8967 6.54972 82.2887 6.91619 82.2887 7.55966V7.58523C82.2887 8.02841 81.8242 8.04972 80.6694 8.1733C79.3995 8.30966 78.185 8.68892 78.185 10.1634C78.185 11.4503 79.1268 12.1321 80.3754 12.1321ZM80.7759 10.9986C80.1325 10.9986 79.6722 10.7045 79.6722 10.1378C79.6722 9.54545 80.1879 9.2983 80.8782 9.20028C81.283 9.14489 82.0927 9.04261 82.293 8.88068V9.65199C82.293 10.3807 81.7049 10.9986 80.7759 10.9986ZM86.9251 3.27273H85.3825V12H86.9251V3.27273ZM88.5114 12H90.054V5.45455H88.5114V12ZM89.2869 4.52557C89.777 4.52557 90.1776 4.15057 90.1776 3.69034C90.1776 3.22585 89.777 2.85085 89.2869 2.85085C88.7926 2.85085 88.392 3.22585 88.392 3.69034C88.392 4.15057 88.7926 4.52557 89.2869 4.52557ZM91.555 12H96.9286V10.7216H93.6048V10.6662L96.8178 6.5071V5.45455H91.6658V6.73295H94.93V6.78835L91.555 11.0199V12ZM101.089 12.1278C102.614 12.1278 103.663 11.3821 103.935 10.2443L102.495 10.0824C102.286 10.6364 101.775 10.9261 101.11 10.9261C100.113 10.9261 99.4524 10.2699 99.4396 9.14915H103.999V8.67614C103.999 6.37926 102.619 5.36932 101.008 5.36932C99.1328 5.36932 97.9098 6.74574 97.9098 8.76562C97.9098 10.8196 99.1158 12.1278 101.089 12.1278ZM99.4439 8.10938C99.4908 7.27415 100.109 6.57102 101.029 6.57102C101.915 6.57102 102.512 7.21875 102.521 8.10938H99.4439ZM107.733 12.1151C108.858 12.1151 109.365 11.446 109.608 10.9688H109.702V12H111.219V3.27273H109.672V6.53693H109.608C109.374 6.06392 108.892 5.36932 107.738 5.36932C106.225 5.36932 105.036 6.55398 105.036 8.7358C105.036 10.892 106.191 12.1151 107.733 12.1151ZM108.164 10.8494C107.145 10.8494 106.608 9.95455 106.608 8.72727C106.608 7.50852 107.137 6.63494 108.164 6.63494C109.157 6.63494 109.702 7.45739 109.702 8.72727C109.702 9.99716 109.148 10.8494 108.164 10.8494ZM39.0284 18.2727H37.294L40.3665 27H42.3182L45.3949 18.2727H43.6562L41.3892 25.142H41.2997L39.0284 18.2727ZM46.4762 27H48.0188V20.4545H46.4762V27ZM47.2518 19.5256C47.7418 19.5256 48.1424 19.1506 48.1424 18.6903C48.1424 18.2259 47.7418 17.8509 47.2518 17.8509C46.7575 17.8509 46.3569 18.2259 46.3569 18.6903C46.3569 19.1506 46.7575 19.5256 47.2518 19.5256ZM52.0341 27.1151C53.1591 27.1151 53.6662 26.446 53.9091 25.9688H54.0028V27H55.5199V18.2727H53.973V21.5369H53.9091C53.6747 21.0639 53.1932 20.3693 52.0384 20.3693C50.5256 20.3693 49.3366 21.554 49.3366 23.7358C49.3366 25.892 50.4915 27.1151 52.0341 27.1151ZM52.4645 25.8494C51.446 25.8494 50.9091 24.9545 50.9091 23.7273C50.9091 22.5085 51.4375 21.6349 52.4645 21.6349C53.4574 21.6349 54.0028 22.4574 54.0028 23.7273C54.0028 24.9972 53.4489 25.8494 52.4645 25.8494ZM60.0614 27.1278C61.587 27.1278 62.6353 26.3821 62.908 25.2443L61.4677 25.0824C61.2589 25.6364 60.7475 25.9261 60.0827 25.9261C59.0856 25.9261 58.4251 25.2699 58.4123 24.1491H62.9719V23.6761C62.9719 21.3793 61.5913 20.3693 59.9805 20.3693C58.1055 20.3693 56.8825 21.7457 56.8825 23.7656C56.8825 25.8196 58.0884 27.1278 60.0614 27.1278ZM58.4165 23.1094C58.4634 22.2741 59.0813 21.571 60.0018 21.571C60.8881 21.571 61.4847 22.2188 61.4933 23.1094H58.4165ZM67.1321 27.1278C69.0497 27.1278 70.2685 25.777 70.2685 23.7528C70.2685 21.7244 69.0497 20.3693 67.1321 20.3693C65.2145 20.3693 63.9957 21.7244 63.9957 23.7528C63.9957 25.777 65.2145 27.1278 67.1321 27.1278ZM67.1406 25.892C66.0795 25.892 65.5597 24.946 65.5597 23.7486C65.5597 22.5511 66.0795 21.5923 67.1406 21.5923C68.1847 21.5923 68.7045 22.5511 68.7045 23.7486C68.7045 24.946 68.1847 25.892 67.1406 25.892ZM76.7511 22.1847C76.538 21.0767 75.6516 20.3693 74.1175 20.3693C72.5408 20.3693 71.467 21.1449 71.4712 22.3551C71.467 23.3097 72.055 23.9403 73.3121 24.2003L74.4286 24.4347C75.0295 24.5668 75.3107 24.8097 75.3107 25.1804C75.3107 25.6278 74.8249 25.9645 74.092 25.9645C73.3846 25.9645 72.9244 25.6577 72.7923 25.0696L71.288 25.2145C71.4798 26.4162 72.4897 27.1278 74.0962 27.1278C75.7326 27.1278 76.8874 26.2798 76.8917 25.0398C76.8874 24.1065 76.2866 23.5355 75.0508 23.267L73.9343 23.0284C73.2695 22.8793 73.0053 22.6491 73.0096 22.2699C73.0053 21.8267 73.4954 21.5199 74.1388 21.5199C74.8505 21.5199 75.2255 21.9077 75.3448 22.3381L76.7511 22.1847Z" fill="black"/>
</svg>
