<svg width="14" height="15" viewBox="0 0 14 15" fill="none" xmlns="http://www.w3.org/2000/svg">
<path d="M5.96346 0.958008C2.6753 0.958008 0 3.6333 0 6.92146C0 10.2098 2.6753 12.8849 5.96346 12.8849C9.2518 12.8849 11.9269 10.2098 11.9269 6.92146C11.9269 3.6333 9.2518 0.958008 5.96346 0.958008ZM5.96346 11.784C3.28229 11.784 1.10095 9.60266 1.10095 6.92149C1.10095 4.24032 3.28229 2.05895 5.96346 2.05895C8.64462 2.05895 10.826 4.2403 10.826 6.92146C10.826 9.60263 8.64462 11.784 5.96346 11.784Z" fill="#8492A6"/>
<path d="M13.3803 13.56L10.2242 10.404C10.0092 10.1889 9.66089 10.1889 9.44584 10.404C9.23078 10.6188 9.23078 10.9675 9.44584 11.1823L12.6019 14.3384C12.7094 14.4459 12.8502 14.4997 12.9911 14.4997C13.1318 14.4997 13.2727 14.4459 13.3803 14.3384C13.5953 14.1235 13.5953 13.7749 13.3803 13.56Z" fill="#8492A6"/>
</svg>
