<svg width="93" height="24" viewBox="0 0 93 24" fill="none" xmlns="http://www.w3.org/2000/svg">
<path fill-rule="evenodd" clip-rule="evenodd" d="M42.7554 11.5332V20.9146H44.7187H46.6818L46.6179 11.6025L46.5537 2.29041L44.6545 2.22113L42.7554 2.15186V11.5332ZM78.4506 2.33003C78.3607 2.41686 78.2872 6.634 78.2872 11.7014V20.9146H80.2397H82.1925L82.2614 18.1438L82.3305 15.3727L84.6447 18.1438L86.9589 20.9146H89.4861H92.013L89.0484 17.5988L86.0838 14.283L88.3554 11.7268C89.6047 10.3209 90.8471 8.93035 91.1159 8.63687L91.6052 8.10306L89.1732 8.10828L86.7413 8.1135L84.5359 10.6552L82.3305 13.1968L82.2648 7.68431L82.1989 2.17178H80.4064C79.4205 2.17178 78.5403 2.24296 78.4506 2.33003ZM33.6309 8.08811C31.4218 8.77804 30.1243 10.4675 30.3164 12.4042C30.5043 14.2965 31.7406 15.2476 35.0318 16.032C36.9334 16.4851 37.3644 16.7335 37.3644 17.3765C37.3644 18.4479 34.6731 18.6365 32.3848 17.7257L30.9584 17.158L30.4857 18.2256C30.2257 18.8128 30.013 19.3969 30.013 19.5238C30.013 20.066 32.759 20.9701 34.775 21.0918C37.855 21.2781 39.612 20.5597 40.5826 18.7177C41.18 17.5836 41.117 16.1542 40.4245 15.1309C39.8943 14.3475 38.3005 13.5475 36.1392 12.98C34.6468 12.5883 33.6887 12.0651 33.6887 11.6419C33.6887 11.5411 33.8619 11.2908 34.0737 11.0855C34.6704 10.5081 36.7545 10.6082 38.2598 11.2867L39.5228 11.8561L40.0364 10.6597C40.3189 10.0018 40.55 9.38398 40.55 9.28694C40.55 9.1899 39.971 8.86677 39.2635 8.56902C37.8599 7.97803 34.8152 7.71824 33.6309 8.08811ZM51.9447 8.43117C49.518 9.54198 48.2825 11.5878 48.2741 14.5088C48.27 15.9852 48.3864 16.5195 48.9578 17.6462C50.1137 19.9255 52.05 21.1519 54.4927 21.1519C55.5944 21.1519 57.0527 20.6541 57.7555 20.0384C58.1654 19.6792 58.1934 19.6949 58.1934 20.2847C58.1934 20.9139 58.1956 20.9146 60.1537 20.9146H62.1141V14.5088V8.10306H60.1537C58.1956 8.10306 58.1934 8.10377 58.1934 8.73296C58.1934 9.32276 58.1654 9.33842 57.7555 8.97922C56.3842 7.77779 53.8872 7.5422 51.9447 8.43117ZM68.7304 8.14125C66.5575 8.71493 64.5746 10.8718 64.074 13.2063C63.3634 16.521 65.5203 20.0112 68.8343 20.9096C70.2546 21.2947 72.5009 21.1298 73.7538 20.5488C74.8801 20.0263 76.9073 18.1639 76.7013 17.841C76.625 17.7214 75.9445 17.2999 75.1891 16.9036L73.8158 16.1833L72.9324 16.8882C70.778 18.6078 67.5051 17.1729 67.5051 14.5088C67.5051 11.6628 71.0047 10.4008 73.298 12.4201C73.82 12.8796 73.8288 12.8782 75.2584 12.1114C76.0482 11.6879 76.7353 11.3114 76.7853 11.2751C76.8351 11.2388 76.5278 10.7835 76.1024 10.2635C74.9876 8.90093 72.7283 7.85869 70.9579 7.89024C70.2046 7.90377 69.2021 8.0167 68.7304 8.14125ZM57.2382 11.9669C58.0579 12.5007 58.0721 12.5396 58.1417 14.4336C58.2093 16.2711 58.1831 16.3803 57.5619 16.8533C55.4871 18.4334 52.4233 17.4887 51.9658 15.1276C51.7472 13.999 52.4291 12.4424 53.3907 11.8746C54.465 11.2405 56.1862 11.2817 57.2382 11.9669Z" fill="black"/>
<rect x="6.39642" y="12.178" width="4.92031" height="11.3167" rx="2.46016" fill="#E01E5A"/>
<rect x="11.3167" y="6.27344" width="4.92031" height="11.3167" rx="2.46016" transform="rotate(90 11.3167 6.27344)" fill="#36C5F0"/>
<rect x="17.4671" y="11.3167" width="4.92031" height="11.3167" rx="2.46016" transform="rotate(-180 17.4671 11.3167)" fill="#2EB67D"/>
<rect x="12.5468" y="17.344" width="4.92031" height="11.3167" rx="2.46016" transform="rotate(-90 12.5468 17.344)" fill="#ECB22E"/>
<path d="M5.41236 14.7611C5.41236 16.1878 4.25584 17.3443 2.8292 17.3443C1.40255 17.3443 0.246033 16.1878 0.246033 14.7611C0.246033 13.3345 1.40255 12.178 2.8292 12.178C3.552 12.178 5.41236 12.178 5.41236 12.178C5.41236 12.178 5.41236 14.0573 5.41236 14.7611Z" fill="#E01E5A"/>
<path d="M8.73355 5.28937C7.30691 5.28937 6.15039 4.13285 6.15039 2.70621C6.15039 1.27957 7.30691 0.123047 8.73355 0.123047C10.1602 0.123047 11.3167 1.27957 11.3167 2.70621C11.3167 3.42901 11.3167 5.28937 11.3167 5.28937C11.3167 5.28937 9.43739 5.28937 8.73355 5.28937Z" fill="#36C5F0"/>
<path d="M18.4512 8.73349C18.4512 7.30685 19.6077 6.15032 21.0343 6.15032C22.461 6.15032 23.6175 7.30685 23.6175 8.73349C23.6175 10.1601 22.461 11.3167 21.0343 11.3167C20.3115 11.3167 18.4512 11.3166 18.4512 11.3166C18.4512 11.3166 18.4512 9.43733 18.4512 8.73349Z" fill="#2EB67D"/>
<path d="M15.13 18.3283C16.5566 18.3283 17.7131 19.4848 17.7131 20.9115C17.7131 22.3381 16.5566 23.4946 15.13 23.4946C13.7033 23.4946 12.5468 22.3381 12.5468 20.9115C12.5468 20.1887 12.5468 18.3283 12.5468 18.3283C12.5468 18.3283 14.4261 18.3283 15.13 18.3283Z" fill="#ECB22E"/>
</svg>
