<svg width="23" height="23" viewBox="0 0 23 23" fill="none" xmlns="http://www.w3.org/2000/svg">
<circle cx="11.1638" cy="11.1638" r="11.1638" fill="#C5D9FF"/>
<mask id="mask0_4886_9398" style="mask-type:alpha" maskUnits="userSpaceOnUse" x="0" y="0" width="23" height="23">
<circle cx="11.1638" cy="11.1638" r="11.1638" fill="#206CFF"/>
</mask>
<g mask="url(#mask0_4886_9398)">
<path d="M11.3917 14.0956C8.77683 14.0956 6.6571 11.9759 6.6571 9.36103C6.6571 6.7462 8.77683 4.62646 11.3917 4.62646C14.0065 4.62646 16.1262 6.7462 16.1262 9.36103C16.1262 11.9759 14.0065 14.0956 11.3917 14.0956Z" fill="white"/>
<path d="M7.36723 15.9895H15.416C17.8959 15.9895 19.9138 18.0074 19.9138 20.4873V23.8015C19.9138 24.1935 19.5957 24.5117 19.2036 24.5117H3.57959C3.18756 24.5117 2.8694 24.1935 2.8694 23.8015V20.4873C2.8694 18.0074 4.88727 15.9895 7.36723 15.9895Z" fill="white"/>
</g>
</svg>
